<mxfile host="app.diagrams.net" modified="2021-03-14T06:26:46.077Z" agent="5.0 (Windows NT 10.0; Win64; x64) AppleWebKit/537.36 (KHTML, like Gecko) Chrome/88.0.4324.190 Safari/537.36" etag="pP4SkdB1rjNYnreAG-kr" version="14.4.3" type="github">
  <diagram id="5OKk2PjNo9qHJ0oYJt4p" name="Page-1">
    <mxGraphModel dx="780" dy="1112" grid="1" gridSize="10" guides="1" tooltips="1" connect="1" arrows="1" fold="1" page="1" pageScale="1" pageWidth="827" pageHeight="1169" math="0" shadow="0">
      <root>
        <mxCell id="0" />
        <mxCell id="1" parent="0" />
        <mxCell id="vTO5dVYhkEbaRum-o0xt-2" value="" style="rounded=1;whiteSpace=wrap;html=1;strokeWidth=2;" vertex="1" parent="1">
          <mxGeometry x="480" y="310" width="120" height="60" as="geometry" />
        </mxCell>
        <mxCell id="vTO5dVYhkEbaRum-o0xt-4" style="edgeStyle=orthogonalEdgeStyle;rounded=0;orthogonalLoop=1;jettySize=auto;html=1;exitX=1;exitY=0.5;exitDx=0;exitDy=0;entryX=0;entryY=0.5;entryDx=0;entryDy=0;strokeWidth=2;" edge="1" parent="1" source="vTO5dVYhkEbaRum-o0xt-3" target="vTO5dVYhkEbaRum-o0xt-2">
          <mxGeometry relative="1" as="geometry" />
        </mxCell>
        <mxCell id="vTO5dVYhkEbaRum-o0xt-6" style="edgeStyle=orthogonalEdgeStyle;rounded=0;orthogonalLoop=1;jettySize=auto;html=1;exitX=1;exitY=0.5;exitDx=0;exitDy=0;strokeWidth=2;" edge="1" parent="1" source="vTO5dVYhkEbaRum-o0xt-3" target="vTO5dVYhkEbaRum-o0xt-5">
          <mxGeometry relative="1" as="geometry" />
        </mxCell>
        <mxCell id="vTO5dVYhkEbaRum-o0xt-3" value="" style="ellipse;whiteSpace=wrap;html=1;aspect=fixed;strokeWidth=2;" vertex="1" parent="1">
          <mxGeometry x="210" y="300" width="80" height="80" as="geometry" />
        </mxCell>
        <mxCell id="vTO5dVYhkEbaRum-o0xt-5" value="" style="rounded=1;whiteSpace=wrap;html=1;strokeWidth=2;" vertex="1" parent="1">
          <mxGeometry x="330" y="450" width="120" height="60" as="geometry" />
        </mxCell>
      </root>
    </mxGraphModel>
  </diagram>
</mxfile>
